<svg width="526" height="93" viewBox="0 0 526 93" fill="none" xmlns="http://www.w3.org/2000/svg">
<path d="M33.7031 29.8125L45 32.6719C49.9375 33.9219 53.5156 35.5938 55.7344 37.6875C59.1719 40.9375 60.2344 45.6406 58.9219 51.7969C57.5781 58.1094 54.0469 63.3594 48.3281 67.5469C42.6094 71.7031 35.3438 73.7812 26.5312 73.7812C17.5312 73.7812 10.8906 71.7344 6.60938 67.6406C2.32812 63.5156 0.953125 57.8594 2.48438 50.6719H16.2656C16.0469 53.8281 16.4062 56.1875 17.3438 57.75C19.0938 60.5938 22.8125 62.0156 28.5 62.0156C31.9062 62.0156 34.75 61.6406 37.0312 60.8906C41.375 59.4531 43.9531 56.7812 44.7656 52.875C45.2656 50.5938 44.6406 48.8281 42.8906 47.5781C41.1719 46.3594 38.2656 45.2812 34.1719 44.3438L27.1875 42.7031C20.3438 41.0781 15.75 39.3125 13.4062 37.4062C9.4375 34.2188 8.17188 29.2344 9.60938 22.4531C10.9219 16.2656 14.2656 11.125 19.6406 7.03125C25.0156 2.9375 32.0625 0.890625 40.7812 0.890625C48.0625 0.890625 53.8594 2.82812 58.1719 6.70312C62.4844 10.5469 63.9844 16.1406 62.6719 23.4844H48.7969C49.4531 19.3281 48.2812 16.375 45.2812 14.625C43.2812 13.4687 40.6094 12.8906 37.2656 12.8906C33.5469 12.8906 30.4062 13.6406 27.8438 15.1406C25.3125 16.6406 23.7656 18.7344 23.2031 21.4219C22.6719 23.8906 23.375 25.7344 25.3125 26.9531C26.5312 27.7656 29.3281 28.7188 33.7031 29.8125ZM90.8906 40.9219C93.4531 40.6094 95.3125 40.2188 96.4688 39.75C98.5312 38.9375 99.75 37.6719 100.125 35.9531C100.562 33.8594 100.141 32.4219 98.8594 31.6406C97.5781 30.8281 95.5312 30.4219 92.7188 30.4219C89.5625 30.4219 87.1562 31.2031 85.5 32.7656C84.3438 33.9219 83.3906 35.4844 82.6406 37.4531H69.75C71 32.9844 73.0312 29.3125 75.8438 26.4375C80.3438 21.9375 86.8906 19.6875 95.4844 19.6875C101.078 19.6875 105.812 20.7969 109.688 23.0156C113.562 25.2344 114.844 29.4219 113.531 35.5781L108.516 59.0156C108.172 60.6406 107.797 62.6094 107.391 64.9219C107.109 66.6719 107.109 67.8594 107.391 68.4844C107.703 69.1094 108.25 69.625 109.031 70.0312L108.656 72H94.125C93.9375 70.9688 93.8594 70 93.8906 69.0938C93.9219 68.1875 94.0156 67.1562 94.1719 66C91.8906 68 89.4062 69.7031 86.7188 71.1094C83.4688 72.7656 80.0312 73.5938 76.4062 73.5938C71.7812 73.5938 68.2344 72.2812 65.7656 69.6562C63.3281 67 62.625 63.25 63.6562 58.4062C65 52.125 68.3906 47.5781 73.8281 44.7656C76.7969 43.2344 80.9375 42.1406 86.25 41.4844L90.8906 40.9219ZM91.125 49.3594L88.0312 49.9219C85.0938 50.4219 82.9375 51.0312 81.5625 51.75C79.25 52.9688 77.8281 54.8594 77.2969 57.4219C76.7969 59.7031 77.0625 61.3594 78.0938 62.3906C79.1562 63.3906 80.5938 63.8906 82.4062 63.8906C85.2812 63.8906 88.1094 63.0469 90.8906 61.3594C93.6719 59.6719 95.5938 56.5938 96.6562 52.125L97.6875 47.1562C96.75 47.6875 95.8125 48.125 94.875 48.4688C93.9375 48.7812 92.6875 49.0781 91.125 49.3594ZM140.344 72H126.469L122.953 20.9062H137.297L137.484 57.5625L152.625 20.9062H166.172L166.125 57.7031L181.922 20.9062H195.844L170.203 72H156.469L156.328 34.7812L140.344 72ZM205.406 74.25L198 20.9062H212.859L216 58.5938L234.562 20.9062H248.766L220.547 71.1562C215.109 80.8438 211.156 86.8438 208.688 89.1562C206.25 91.5 202.078 92.6719 196.172 92.6719C194.984 92.6719 194.031 92.6562 193.312 92.625C192.594 92.625 191.531 92.5781 190.125 92.4844L192.375 81.7969L194.062 81.8906C195.344 81.9531 196.594 81.9062 197.812 81.75C199.031 81.5938 200.109 81.2344 201.047 80.6719C201.953 80.1406 202.922 79.0312 203.953 77.3438C204.984 75.6562 205.469 74.625 205.406 74.25ZM275.906 60.5156C277 59.6719 278.078 58.5 279.141 57H292.781C291.781 60.0312 289.547 63.1094 286.078 66.2344C280.641 71.2031 273.984 73.6875 266.109 73.6875C259.609 73.6875 254.312 71.5938 250.219 67.4062C246.156 63.2188 245.125 56.4062 247.125 46.9688C249 38.125 252.672 31.3438 258.141 26.625C263.641 21.9062 269.969 19.5469 277.125 19.5469C281.375 19.5469 285.031 20.3438 288.094 21.9375C291.188 23.5312 293.469 26.0469 294.938 29.4844C296.312 32.5156 296.859 36.0312 296.578 40.0312C296.453 42.375 295.891 45.75 294.891 50.1562H259.922C259.016 55.2812 259.859 58.875 262.453 60.9375C264.016 62.2188 266.094 62.8594 268.688 62.8594C271.438 62.8594 273.844 62.0781 275.906 60.5156ZM274.781 30.5625C271.688 30.5625 269.078 31.5312 266.953 33.4688C264.859 35.4062 263.25 38.0312 262.125 41.3438H282.891C283.422 37.8125 282.906 35.1406 281.344 33.3281C279.812 31.4844 277.625 30.5625 274.781 30.5625ZM338.812 19.6875C338.969 19.7188 339.328 19.75 339.891 19.7812L336.984 33.4688C336.172 33.375 335.438 33.3125 334.781 33.2812C334.125 33.25 333.594 33.2344 333.188 33.2344C327.812 33.2344 323.828 34.9844 321.234 38.4844C319.797 40.4531 318.641 43.4844 317.766 47.5781L312.609 72H299.156L309.984 20.9062H322.734L320.859 29.8125C323.641 26.4062 325.922 24.0781 327.703 22.8281C330.672 20.7344 334.156 19.6875 338.156 19.6875C338.406 19.6875 338.625 19.6875 338.812 19.6875ZM370.172 29.8125L381.469 32.6719C386.406 33.9219 389.984 35.5938 392.203 37.6875C395.641 40.9375 396.703 45.6406 395.391 51.7969C394.047 58.1094 390.516 63.3594 384.797 67.5469C379.078 71.7031 371.812 73.7812 363 73.7812C354 73.7812 347.359 71.7344 343.078 67.6406C338.797 63.5156 337.422 57.8594 338.953 50.6719H352.734C352.516 53.8281 352.875 56.1875 353.812 57.75C355.562 60.5938 359.281 62.0156 364.969 62.0156C368.375 62.0156 371.219 61.6406 373.5 60.8906C377.844 59.4531 380.422 56.7812 381.234 52.875C381.734 50.5938 381.109 48.8281 379.359 47.5781C377.641 46.3594 374.734 45.2812 370.641 44.3438L363.656 42.7031C356.812 41.0781 352.219 39.3125 349.875 37.4062C345.906 34.2188 344.641 29.2344 346.078 22.4531C347.391 16.2656 350.734 11.125 356.109 7.03125C361.484 2.9375 368.531 0.890625 377.25 0.890625C384.531 0.890625 390.328 2.82812 394.641 6.70312C398.953 10.5469 400.453 16.1406 399.141 23.4844H385.266C385.922 19.3281 384.75 16.375 381.75 14.625C379.75 13.4687 377.078 12.8906 373.734 12.8906C370.016 12.8906 366.875 13.6406 364.312 15.1406C361.781 16.6406 360.234 18.7344 359.672 21.4219C359.141 23.8906 359.844 25.7344 361.781 26.9531C363 27.7656 365.797 28.7188 370.172 29.8125ZM452.812 27.375C455.969 32.7812 456.766 39.1719 455.203 46.5469C453.609 54.0469 450.078 60.4688 444.609 65.8125C439.172 71.125 432.062 73.7812 423.281 73.7812C414.5 73.7812 408.516 71.125 405.328 65.8125C402.172 60.4688 401.391 54.0469 402.984 46.5469C404.547 39.1719 408.062 32.7812 413.531 27.375C419 21.9688 426.125 19.2656 434.906 19.2656C443.688 19.2656 449.656 21.9688 452.812 27.375ZM432.422 30.5625C428.516 30.5625 425.219 31.9531 422.531 34.7344C419.844 37.4844 417.953 41.4219 416.859 46.5469C415.766 51.6719 415.969 55.625 417.469 58.4062C419 61.1875 421.719 62.5781 425.625 62.5781C429.531 62.5781 432.828 61.1875 435.516 58.4062C438.203 55.625 440.094 51.6719 441.188 46.5469C442.281 41.4219 442.062 37.4844 440.531 34.7344C439.031 31.9531 436.328 30.5625 432.422 30.5625ZM494.438 21.375L492.422 30.7969H483.656L474.938 72H461.625L470.344 30.7969H462.891L464.906 21.375H472.219L472.922 18.0938C474.078 12.625 475.797 8.85938 478.078 6.79688C480.672 3.73438 485.672 2.20312 493.078 2.20312C493.922 2.20312 494.672 2.23438 495.328 2.29688C496.016 2.32813 496.953 2.39062 498.141 2.48438L495.797 13.3594C495.078 13.2656 493.844 13.2031 492.094 13.1719C490.344 13.1094 489.031 13.5 488.156 14.3438C487.312 15.1562 486.797 16.0625 486.609 17.0625C486.391 18.0625 486.078 19.5 485.672 21.375H494.438ZM509.438 57.8906C509 59.9844 508.984 61.2969 509.391 61.8281C509.828 62.3281 511.406 62.5781 514.125 62.5781C514.531 62.5781 514.953 62.5781 515.391 62.5781C515.859 62.5469 516.328 62.5156 516.797 62.4844L514.641 72.4688L508.266 72.7031C501.922 72.9219 497.844 71.8281 496.031 69.4219C494.875 67.8906 494.625 65.5312 495.281 62.3438L501.984 30.8906H494.859L496.875 21.375H504L507.047 7.125H520.266L517.219 21.375H525.516L523.5 30.8906H515.203L509.438 57.8906Z" fill="white"/>
</svg>
